<mxfile host="app.diagrams.net" agent="Mozilla/5.0 (Windows NT 10.0; Win64; x64) AppleWebKit/537.36 (KHTML, like Gecko) Chrome/132.0.0.0 Safari/537.36 Edg/132.0.0.0" version="26.0.10">
  <diagram name="Pagina-1" id="WMPa1ZfQ0zNapIu0gXPC">
    <mxGraphModel dx="2487" dy="945" grid="1" gridSize="10" guides="1" tooltips="1" connect="1" arrows="1" fold="1" page="1" pageScale="1" pageWidth="827" pageHeight="1169" math="0" shadow="0">
      <root>
        <mxCell id="0" />
        <mxCell id="1" parent="0" />
        <mxCell id="ijX0M6kTsE7lM6oCaIcg-3" value="" style="edgeStyle=orthogonalEdgeStyle;rounded=0;orthogonalLoop=1;jettySize=auto;html=1;" edge="1" parent="1" source="ijX0M6kTsE7lM6oCaIcg-1">
          <mxGeometry relative="1" as="geometry">
            <mxPoint x="390" y="180" as="targetPoint" />
          </mxGeometry>
        </mxCell>
        <mxCell id="ijX0M6kTsE7lM6oCaIcg-1" value="START" style="ellipse;whiteSpace=wrap;html=1;" vertex="1" parent="1">
          <mxGeometry x="330" y="10" width="120" height="80" as="geometry" />
        </mxCell>
        <mxCell id="ijX0M6kTsE7lM6oCaIcg-6" value="" style="edgeStyle=orthogonalEdgeStyle;rounded=0;orthogonalLoop=1;jettySize=auto;html=1;" edge="1" parent="1" source="ijX0M6kTsE7lM6oCaIcg-4" target="ijX0M6kTsE7lM6oCaIcg-5">
          <mxGeometry relative="1" as="geometry" />
        </mxCell>
        <mxCell id="ijX0M6kTsE7lM6oCaIcg-4" value="i = 0&lt;div&gt;somma = 0&amp;nbsp;&lt;/div&gt;&lt;div&gt;prodotto = 0&lt;/div&gt;" style="rounded=0;whiteSpace=wrap;html=1;" vertex="1" parent="1">
          <mxGeometry x="330" y="180" width="120" height="60" as="geometry" />
        </mxCell>
        <mxCell id="ijX0M6kTsE7lM6oCaIcg-8" value="" style="edgeStyle=orthogonalEdgeStyle;rounded=0;orthogonalLoop=1;jettySize=auto;html=1;" edge="1" parent="1" source="ijX0M6kTsE7lM6oCaIcg-5" target="ijX0M6kTsE7lM6oCaIcg-7">
          <mxGeometry relative="1" as="geometry" />
        </mxCell>
        <mxCell id="ijX0M6kTsE7lM6oCaIcg-5" value="read n" style="shape=parallelogram;perimeter=parallelogramPerimeter;whiteSpace=wrap;html=1;fixedSize=1;rounded=0;" vertex="1" parent="1">
          <mxGeometry x="330" y="320" width="120" height="60" as="geometry" />
        </mxCell>
        <mxCell id="ijX0M6kTsE7lM6oCaIcg-9" style="edgeStyle=orthogonalEdgeStyle;rounded=0;orthogonalLoop=1;jettySize=auto;html=1;" edge="1" parent="1" source="ijX0M6kTsE7lM6oCaIcg-7" target="ijX0M6kTsE7lM6oCaIcg-10">
          <mxGeometry relative="1" as="geometry">
            <mxPoint x="250" y="475" as="targetPoint" />
          </mxGeometry>
        </mxCell>
        <mxCell id="ijX0M6kTsE7lM6oCaIcg-13" value="FALSE" style="edgeLabel;html=1;align=center;verticalAlign=middle;resizable=0;points=[];" vertex="1" connectable="0" parent="ijX0M6kTsE7lM6oCaIcg-9">
          <mxGeometry x="-0.2571" y="1" relative="1" as="geometry">
            <mxPoint as="offset" />
          </mxGeometry>
        </mxCell>
        <mxCell id="ijX0M6kTsE7lM6oCaIcg-15" value="" style="edgeStyle=orthogonalEdgeStyle;rounded=0;orthogonalLoop=1;jettySize=auto;html=1;" edge="1" parent="1" source="ijX0M6kTsE7lM6oCaIcg-7" target="ijX0M6kTsE7lM6oCaIcg-14">
          <mxGeometry relative="1" as="geometry" />
        </mxCell>
        <mxCell id="ijX0M6kTsE7lM6oCaIcg-16" value="TRUE" style="edgeLabel;html=1;align=center;verticalAlign=middle;resizable=0;points=[];" vertex="1" connectable="0" parent="ijX0M6kTsE7lM6oCaIcg-15">
          <mxGeometry x="-0.0444" y="3" relative="1" as="geometry">
            <mxPoint as="offset" />
          </mxGeometry>
        </mxCell>
        <mxCell id="ijX0M6kTsE7lM6oCaIcg-7" value="n&amp;gt;0" style="rhombus;whiteSpace=wrap;html=1;rounded=0;" vertex="1" parent="1">
          <mxGeometry x="340" y="430" width="100" height="90" as="geometry" />
        </mxCell>
        <mxCell id="ijX0M6kTsE7lM6oCaIcg-12" value="" style="edgeStyle=orthogonalEdgeStyle;rounded=0;orthogonalLoop=1;jettySize=auto;html=1;" edge="1" parent="1" source="ijX0M6kTsE7lM6oCaIcg-10" target="ijX0M6kTsE7lM6oCaIcg-11">
          <mxGeometry relative="1" as="geometry">
            <Array as="points">
              <mxPoint x="-110" y="475" />
              <mxPoint x="-110" y="980" />
            </Array>
          </mxGeometry>
        </mxCell>
        <mxCell id="ijX0M6kTsE7lM6oCaIcg-10" value="write &quot;error!&quot;" style="shape=parallelogram;perimeter=parallelogramPerimeter;whiteSpace=wrap;html=1;fixedSize=1;" vertex="1" parent="1">
          <mxGeometry x="160" y="445" width="120" height="60" as="geometry" />
        </mxCell>
        <mxCell id="ijX0M6kTsE7lM6oCaIcg-11" value="" style="shape=waypoint;sketch=0;size=6;pointerEvents=1;points=[];fillColor=default;resizable=0;rotatable=0;perimeter=centerPerimeter;snapToPoint=1;" vertex="1" parent="1">
          <mxGeometry x="330" y="970" width="20" height="20" as="geometry" />
        </mxCell>
        <mxCell id="ijX0M6kTsE7lM6oCaIcg-18" value="" style="edgeStyle=orthogonalEdgeStyle;rounded=0;orthogonalLoop=1;jettySize=auto;html=1;" edge="1" parent="1" source="ijX0M6kTsE7lM6oCaIcg-14">
          <mxGeometry relative="1" as="geometry">
            <mxPoint x="520" y="605" as="targetPoint" />
          </mxGeometry>
        </mxCell>
        <mxCell id="ijX0M6kTsE7lM6oCaIcg-19" value="TRUE" style="edgeLabel;html=1;align=center;verticalAlign=middle;resizable=0;points=[];" vertex="1" connectable="0" parent="ijX0M6kTsE7lM6oCaIcg-18">
          <mxGeometry x="0.0588" y="3" relative="1" as="geometry">
            <mxPoint as="offset" />
          </mxGeometry>
        </mxCell>
        <mxCell id="ijX0M6kTsE7lM6oCaIcg-38" style="edgeStyle=orthogonalEdgeStyle;rounded=0;orthogonalLoop=1;jettySize=auto;html=1;exitX=0;exitY=0.5;exitDx=0;exitDy=0;" edge="1" parent="1" source="ijX0M6kTsE7lM6oCaIcg-14" target="ijX0M6kTsE7lM6oCaIcg-39">
          <mxGeometry relative="1" as="geometry">
            <mxPoint x="300" y="605" as="targetPoint" />
          </mxGeometry>
        </mxCell>
        <mxCell id="ijX0M6kTsE7lM6oCaIcg-43" value="FALSE" style="edgeLabel;html=1;align=center;verticalAlign=middle;resizable=0;points=[];" vertex="1" connectable="0" parent="ijX0M6kTsE7lM6oCaIcg-38">
          <mxGeometry x="-0.2727" y="-1" relative="1" as="geometry">
            <mxPoint as="offset" />
          </mxGeometry>
        </mxCell>
        <mxCell id="ijX0M6kTsE7lM6oCaIcg-14" value="n%2==0" style="rhombus;whiteSpace=wrap;html=1;rounded=0;" vertex="1" parent="1">
          <mxGeometry x="345" y="560" width="90" height="90" as="geometry" />
        </mxCell>
        <mxCell id="ijX0M6kTsE7lM6oCaIcg-22" value="" style="edgeStyle=orthogonalEdgeStyle;rounded=0;orthogonalLoop=1;jettySize=auto;html=1;" edge="1" parent="1" source="ijX0M6kTsE7lM6oCaIcg-20" target="ijX0M6kTsE7lM6oCaIcg-21">
          <mxGeometry relative="1" as="geometry" />
        </mxCell>
        <mxCell id="ijX0M6kTsE7lM6oCaIcg-23" value="TRUE" style="edgeLabel;html=1;align=center;verticalAlign=middle;resizable=0;points=[];" vertex="1" connectable="0" parent="ijX0M6kTsE7lM6oCaIcg-22">
          <mxGeometry x="-0.12" y="-3" relative="1" as="geometry">
            <mxPoint as="offset" />
          </mxGeometry>
        </mxCell>
        <mxCell id="ijX0M6kTsE7lM6oCaIcg-35" style="edgeStyle=orthogonalEdgeStyle;rounded=0;orthogonalLoop=1;jettySize=auto;html=1;exitX=0.5;exitY=0;exitDx=0;exitDy=0;" edge="1" parent="1" source="ijX0M6kTsE7lM6oCaIcg-20" target="ijX0M6kTsE7lM6oCaIcg-36">
          <mxGeometry relative="1" as="geometry">
            <mxPoint x="860" y="1026.4000244140625" as="targetPoint" />
          </mxGeometry>
        </mxCell>
        <mxCell id="ijX0M6kTsE7lM6oCaIcg-37" value="FALSE" style="edgeLabel;html=1;align=center;verticalAlign=middle;resizable=0;points=[];" vertex="1" connectable="0" parent="ijX0M6kTsE7lM6oCaIcg-35">
          <mxGeometry x="-0.8932" relative="1" as="geometry">
            <mxPoint as="offset" />
          </mxGeometry>
        </mxCell>
        <mxCell id="ijX0M6kTsE7lM6oCaIcg-20" value="i&amp;lt;n&amp;nbsp;" style="rhombus;whiteSpace=wrap;html=1;" vertex="1" parent="1">
          <mxGeometry x="520" y="567.5" width="90" height="75" as="geometry" />
        </mxCell>
        <mxCell id="ijX0M6kTsE7lM6oCaIcg-25" value="" style="edgeStyle=orthogonalEdgeStyle;rounded=0;orthogonalLoop=1;jettySize=auto;html=1;" edge="1" parent="1" source="ijX0M6kTsE7lM6oCaIcg-21" target="ijX0M6kTsE7lM6oCaIcg-24">
          <mxGeometry relative="1" as="geometry" />
        </mxCell>
        <mxCell id="ijX0M6kTsE7lM6oCaIcg-21" value="i += 1" style="whiteSpace=wrap;html=1;" vertex="1" parent="1">
          <mxGeometry x="675" y="575" width="120" height="60" as="geometry" />
        </mxCell>
        <mxCell id="ijX0M6kTsE7lM6oCaIcg-27" value="" style="edgeStyle=orthogonalEdgeStyle;rounded=0;orthogonalLoop=1;jettySize=auto;html=1;" edge="1" parent="1" source="ijX0M6kTsE7lM6oCaIcg-24" target="ijX0M6kTsE7lM6oCaIcg-26">
          <mxGeometry relative="1" as="geometry" />
        </mxCell>
        <mxCell id="ijX0M6kTsE7lM6oCaIcg-28" value="TRUE" style="edgeLabel;html=1;align=center;verticalAlign=middle;resizable=0;points=[];" vertex="1" connectable="0" parent="ijX0M6kTsE7lM6oCaIcg-27">
          <mxGeometry y="2" relative="1" as="geometry">
            <mxPoint as="offset" />
          </mxGeometry>
        </mxCell>
        <mxCell id="ijX0M6kTsE7lM6oCaIcg-24" value="i%4 ==0" style="rhombus;whiteSpace=wrap;html=1;" vertex="1" parent="1">
          <mxGeometry x="695" y="705" width="80" height="80" as="geometry" />
        </mxCell>
        <mxCell id="ijX0M6kTsE7lM6oCaIcg-30" value="" style="edgeStyle=orthogonalEdgeStyle;rounded=0;orthogonalLoop=1;jettySize=auto;html=1;" edge="1" parent="1" source="ijX0M6kTsE7lM6oCaIcg-26" target="ijX0M6kTsE7lM6oCaIcg-29">
          <mxGeometry relative="1" as="geometry" />
        </mxCell>
        <mxCell id="ijX0M6kTsE7lM6oCaIcg-26" value="somma += i" style="whiteSpace=wrap;html=1;" vertex="1" parent="1">
          <mxGeometry x="675" y="875" width="120" height="60" as="geometry" />
        </mxCell>
        <mxCell id="ijX0M6kTsE7lM6oCaIcg-32" value="" style="edgeStyle=orthogonalEdgeStyle;rounded=0;orthogonalLoop=1;jettySize=auto;html=1;" edge="1" parent="1" source="ijX0M6kTsE7lM6oCaIcg-29" target="ijX0M6kTsE7lM6oCaIcg-20">
          <mxGeometry relative="1" as="geometry" />
        </mxCell>
        <mxCell id="ijX0M6kTsE7lM6oCaIcg-29" value="" style="shape=waypoint;sketch=0;size=6;pointerEvents=1;points=[];fillColor=default;resizable=0;rotatable=0;perimeter=centerPerimeter;snapToPoint=1;" vertex="1" parent="1">
          <mxGeometry x="555" y="735" width="20" height="20" as="geometry" />
        </mxCell>
        <mxCell id="ijX0M6kTsE7lM6oCaIcg-31" style="edgeStyle=orthogonalEdgeStyle;rounded=0;orthogonalLoop=1;jettySize=auto;html=1;exitX=0;exitY=0.5;exitDx=0;exitDy=0;entryX=0.82;entryY=0.79;entryDx=0;entryDy=0;entryPerimeter=0;" edge="1" parent="1" source="ijX0M6kTsE7lM6oCaIcg-24" target="ijX0M6kTsE7lM6oCaIcg-29">
          <mxGeometry relative="1" as="geometry" />
        </mxCell>
        <mxCell id="ijX0M6kTsE7lM6oCaIcg-34" value="FALSE" style="edgeLabel;html=1;align=center;verticalAlign=middle;resizable=0;points=[];" vertex="1" connectable="0" parent="ijX0M6kTsE7lM6oCaIcg-31">
          <mxGeometry x="-0.1692" y="-1" relative="1" as="geometry">
            <mxPoint as="offset" />
          </mxGeometry>
        </mxCell>
        <mxCell id="ijX0M6kTsE7lM6oCaIcg-36" value="write somma" style="rounded=0;whiteSpace=wrap;html=1;" vertex="1" parent="1">
          <mxGeometry x="800" y="996.4000244140625" width="120" height="60" as="geometry" />
        </mxCell>
        <mxCell id="ijX0M6kTsE7lM6oCaIcg-41" style="edgeStyle=orthogonalEdgeStyle;rounded=0;orthogonalLoop=1;jettySize=auto;html=1;exitX=0;exitY=0.5;exitDx=0;exitDy=0;" edge="1" parent="1" source="ijX0M6kTsE7lM6oCaIcg-39" target="ijX0M6kTsE7lM6oCaIcg-42">
          <mxGeometry relative="1" as="geometry">
            <mxPoint x="150" y="605" as="targetPoint" />
          </mxGeometry>
        </mxCell>
        <mxCell id="ijX0M6kTsE7lM6oCaIcg-49" value="TRUE" style="edgeLabel;html=1;align=center;verticalAlign=middle;resizable=0;points=[];" vertex="1" connectable="0" parent="ijX0M6kTsE7lM6oCaIcg-41">
          <mxGeometry x="-0.28" y="-1" relative="1" as="geometry">
            <mxPoint as="offset" />
          </mxGeometry>
        </mxCell>
        <mxCell id="ijX0M6kTsE7lM6oCaIcg-55" style="edgeStyle=orthogonalEdgeStyle;rounded=0;orthogonalLoop=1;jettySize=auto;html=1;exitX=0.5;exitY=0;exitDx=0;exitDy=0;" edge="1" parent="1" source="ijX0M6kTsE7lM6oCaIcg-39" target="ijX0M6kTsE7lM6oCaIcg-56">
          <mxGeometry relative="1" as="geometry">
            <mxPoint x="-10" y="990" as="targetPoint" />
          </mxGeometry>
        </mxCell>
        <mxCell id="ijX0M6kTsE7lM6oCaIcg-57" value="FALSE" style="edgeLabel;html=1;align=center;verticalAlign=middle;resizable=0;points=[];" vertex="1" connectable="0" parent="ijX0M6kTsE7lM6oCaIcg-55">
          <mxGeometry x="-0.8791" y="-1" relative="1" as="geometry">
            <mxPoint as="offset" />
          </mxGeometry>
        </mxCell>
        <mxCell id="ijX0M6kTsE7lM6oCaIcg-39" value="i&amp;lt;n" style="rhombus;whiteSpace=wrap;html=1;" vertex="1" parent="1">
          <mxGeometry x="210" y="565" width="80" height="80" as="geometry" />
        </mxCell>
        <mxCell id="ijX0M6kTsE7lM6oCaIcg-45" value="" style="edgeStyle=orthogonalEdgeStyle;rounded=0;orthogonalLoop=1;jettySize=auto;html=1;" edge="1" parent="1" source="ijX0M6kTsE7lM6oCaIcg-42" target="ijX0M6kTsE7lM6oCaIcg-44">
          <mxGeometry relative="1" as="geometry" />
        </mxCell>
        <mxCell id="ijX0M6kTsE7lM6oCaIcg-42" value="i += 1" style="rounded=0;whiteSpace=wrap;html=1;" vertex="1" parent="1">
          <mxGeometry x="40" y="575" width="120" height="60" as="geometry" />
        </mxCell>
        <mxCell id="ijX0M6kTsE7lM6oCaIcg-47" value="" style="edgeStyle=orthogonalEdgeStyle;rounded=0;orthogonalLoop=1;jettySize=auto;html=1;" edge="1" parent="1" source="ijX0M6kTsE7lM6oCaIcg-44" target="ijX0M6kTsE7lM6oCaIcg-46">
          <mxGeometry relative="1" as="geometry" />
        </mxCell>
        <mxCell id="ijX0M6kTsE7lM6oCaIcg-48" value="TRUE" style="edgeLabel;html=1;align=center;verticalAlign=middle;resizable=0;points=[];" vertex="1" connectable="0" parent="ijX0M6kTsE7lM6oCaIcg-47">
          <mxGeometry x="-0.2" y="-4" relative="1" as="geometry">
            <mxPoint as="offset" />
          </mxGeometry>
        </mxCell>
        <mxCell id="ijX0M6kTsE7lM6oCaIcg-51" value="" style="edgeStyle=orthogonalEdgeStyle;rounded=0;orthogonalLoop=1;jettySize=auto;html=1;" edge="1" parent="1" source="ijX0M6kTsE7lM6oCaIcg-44" target="ijX0M6kTsE7lM6oCaIcg-50">
          <mxGeometry relative="1" as="geometry" />
        </mxCell>
        <mxCell id="ijX0M6kTsE7lM6oCaIcg-54" value="FALSE" style="edgeLabel;html=1;align=center;verticalAlign=middle;resizable=0;points=[];" vertex="1" connectable="0" parent="ijX0M6kTsE7lM6oCaIcg-51">
          <mxGeometry x="-0.3273" y="-1" relative="1" as="geometry">
            <mxPoint as="offset" />
          </mxGeometry>
        </mxCell>
        <mxCell id="ijX0M6kTsE7lM6oCaIcg-44" value="i != 0" style="rhombus;whiteSpace=wrap;html=1;rounded=0;" vertex="1" parent="1">
          <mxGeometry x="60" y="705" width="80" height="80" as="geometry" />
        </mxCell>
        <mxCell id="ijX0M6kTsE7lM6oCaIcg-46" value="prodotto * = i" style="rounded=0;whiteSpace=wrap;html=1;" vertex="1" parent="1">
          <mxGeometry x="40" y="875" width="120" height="60" as="geometry" />
        </mxCell>
        <mxCell id="ijX0M6kTsE7lM6oCaIcg-53" value="" style="edgeStyle=orthogonalEdgeStyle;rounded=0;orthogonalLoop=1;jettySize=auto;html=1;" edge="1" parent="1" source="ijX0M6kTsE7lM6oCaIcg-50" target="ijX0M6kTsE7lM6oCaIcg-39">
          <mxGeometry relative="1" as="geometry" />
        </mxCell>
        <mxCell id="ijX0M6kTsE7lM6oCaIcg-50" value="" style="shape=waypoint;sketch=0;size=6;pointerEvents=1;points=[];fillColor=default;resizable=0;rotatable=0;perimeter=centerPerimeter;snapToPoint=1;rounded=0;" vertex="1" parent="1">
          <mxGeometry x="240" y="735" width="20" height="20" as="geometry" />
        </mxCell>
        <mxCell id="ijX0M6kTsE7lM6oCaIcg-52" style="edgeStyle=orthogonalEdgeStyle;rounded=0;orthogonalLoop=1;jettySize=auto;html=1;exitX=1;exitY=0.5;exitDx=0;exitDy=0;entryX=0.73;entryY=1.23;entryDx=0;entryDy=0;entryPerimeter=0;" edge="1" parent="1" source="ijX0M6kTsE7lM6oCaIcg-46" target="ijX0M6kTsE7lM6oCaIcg-50">
          <mxGeometry relative="1" as="geometry" />
        </mxCell>
        <mxCell id="ijX0M6kTsE7lM6oCaIcg-59" value="" style="edgeStyle=orthogonalEdgeStyle;rounded=0;orthogonalLoop=1;jettySize=auto;html=1;" edge="1" parent="1" source="ijX0M6kTsE7lM6oCaIcg-56" target="ijX0M6kTsE7lM6oCaIcg-58">
          <mxGeometry relative="1" as="geometry" />
        </mxCell>
        <mxCell id="ijX0M6kTsE7lM6oCaIcg-56" value="write prodotto" style="rounded=0;whiteSpace=wrap;html=1;" vertex="1" parent="1">
          <mxGeometry x="-60" y="996.4" width="120" height="60" as="geometry" />
        </mxCell>
        <mxCell id="ijX0M6kTsE7lM6oCaIcg-62" value="" style="edgeStyle=orthogonalEdgeStyle;rounded=0;orthogonalLoop=1;jettySize=auto;html=1;" edge="1" parent="1" source="ijX0M6kTsE7lM6oCaIcg-58">
          <mxGeometry relative="1" as="geometry">
            <mxPoint x="390" y="1086.4" as="targetPoint" />
          </mxGeometry>
        </mxCell>
        <mxCell id="ijX0M6kTsE7lM6oCaIcg-58" value="" style="shape=waypoint;sketch=0;size=6;pointerEvents=1;points=[];fillColor=default;resizable=0;rotatable=0;perimeter=centerPerimeter;snapToPoint=1;rounded=0;" vertex="1" parent="1">
          <mxGeometry x="380" y="1016.4000000000001" width="20" height="20" as="geometry" />
        </mxCell>
        <mxCell id="ijX0M6kTsE7lM6oCaIcg-60" style="edgeStyle=orthogonalEdgeStyle;rounded=0;orthogonalLoop=1;jettySize=auto;html=1;entryX=0.9;entryY=0.68;entryDx=0;entryDy=0;entryPerimeter=0;" edge="1" parent="1" source="ijX0M6kTsE7lM6oCaIcg-36" target="ijX0M6kTsE7lM6oCaIcg-58">
          <mxGeometry relative="1" as="geometry" />
        </mxCell>
        <mxCell id="ijX0M6kTsE7lM6oCaIcg-63" value="END" style="ellipse;whiteSpace=wrap;html=1;" vertex="1" parent="1">
          <mxGeometry x="330" y="1089" width="120" height="80" as="geometry" />
        </mxCell>
        <mxCell id="ijX0M6kTsE7lM6oCaIcg-64" style="edgeStyle=orthogonalEdgeStyle;rounded=0;orthogonalLoop=1;jettySize=auto;html=1;entryX=0.66;entryY=0.04;entryDx=0;entryDy=0;entryPerimeter=0;" edge="1" parent="1" source="ijX0M6kTsE7lM6oCaIcg-11" target="ijX0M6kTsE7lM6oCaIcg-58">
          <mxGeometry relative="1" as="geometry" />
        </mxCell>
      </root>
    </mxGraphModel>
  </diagram>
</mxfile>
